<svg width="107" height="24" viewBox="0 0 107 24" fill="none" xmlns="http://www.w3.org/2000/svg">
<path opacity="0.45" d="M35.8027 7.03726C35.8027 5.63007 37.2033 4.62838 38.5313 5.10423C41.6299 6.21702 43.8451 9.17025 43.8451 12.6382C43.8451 16.1062 41.6299 19.0594 38.5313 20.1722C37.2014 20.6499 35.8027 19.6463 35.8027 18.2392V7.03726Z" fill="black"/>
<path d="M33.777 4.32751C33.777 2.24081 31.6994 0.752157 29.7279 1.45945C25.1302 3.11104 21.8418 7.49366 21.8418 12.6391C21.8418 17.7864 25.1283 22.1691 29.7279 23.8188C31.7013 24.5261 33.777 23.0375 33.777 20.9508V4.32751Z" fill="black"/>
<path d="M0 4.30551C0 4.09073 0.0390586 3.88706 0.120896 3.6982C0.202733 3.50934 0.314328 3.34455 0.451963 3.20754C0.591458 3.06867 0.756992 2.95943 0.946705 2.87796C1.13642 2.79464 1.33543 2.75391 1.5456 2.75391C1.75206 2.75391 1.95107 2.79464 2.14078 2.87796C2.33049 2.95943 2.49789 3.06867 2.6411 3.20754C2.78432 3.3464 2.89777 3.50934 2.97961 3.6982C3.06145 3.88706 3.10423 4.09073 3.10423 4.30551C3.10423 4.51288 3.06145 4.70915 2.97961 4.8943C2.89777 5.07946 2.78432 5.24239 2.6411 5.37941C2.49789 5.51828 2.33235 5.62752 2.14078 5.71084C1.95107 5.79231 1.75206 5.83304 1.5456 5.83304C1.33729 5.83304 1.13828 5.79231 0.946705 5.71084C0.756992 5.62752 0.591458 5.51828 0.451963 5.37941C0.314328 5.24239 0.202733 5.08131 0.120896 4.8943C0.0390586 4.70915 0 4.51288 0 4.30551ZM2.96101 17.7959C2.96101 17.994 2.92381 18.1774 2.84942 18.3458C2.77502 18.5143 2.6783 18.6606 2.54997 18.7865C2.42535 18.9124 2.2747 19.0105 2.10358 19.0846C1.92875 19.1568 1.74834 19.1939 1.55862 19.1939C1.36891 19.1939 1.18478 19.1568 1.00994 19.0846C0.838829 19.0087 0.688175 18.9087 0.557979 18.7847C0.427784 18.6588 0.325488 18.5125 0.251091 18.344C0.176693 18.1755 0.143215 17.9922 0.143215 17.7941V8.56038C0.143215 8.37152 0.180413 8.19192 0.26039 8.02343C0.336648 7.85494 0.440804 7.70681 0.572859 7.5772C0.703054 7.4476 0.853709 7.34576 1.02482 7.27355C1.19966 7.20134 1.38565 7.16431 1.5828 7.16431C1.77251 7.16431 1.95293 7.20134 2.12218 7.27355C2.29144 7.34761 2.44023 7.44945 2.56485 7.5772C2.68946 7.70681 2.78804 7.85494 2.85685 8.02343C2.92753 8.19007 2.96287 8.36967 2.96287 8.56038V17.7959H2.96101Z" fill="black"/>
<path d="M16.2272 17.8338C16.2272 18.032 16.1901 18.2153 16.1157 18.3838C16.0413 18.5522 15.9445 18.6985 15.8236 18.8244C15.7027 18.9503 15.5558 19.0466 15.3866 19.1151C15.2173 19.1855 15.0369 19.2188 14.849 19.2188C14.6482 19.2188 14.4622 19.1855 14.2873 19.1151C14.1162 19.0466 13.9637 18.9485 13.8354 18.8244C13.7052 18.6985 13.5992 18.5522 13.5229 18.3838C13.4429 18.2171 13.4057 18.0338 13.4057 17.8338V13.0235C13.4057 12.955 13.4076 12.9032 13.4188 12.868C13.4002 12.4458 13.3109 12.0496 13.1509 11.6793C12.9891 11.309 12.7771 10.985 12.513 10.7091C12.2507 10.4332 11.9364 10.2147 11.5737 10.0555C11.2092 9.89624 10.8148 9.81662 10.3908 9.81662C9.94812 9.81662 9.54079 9.89624 9.16881 10.0555C8.79868 10.2147 8.47877 10.4369 8.21652 10.722C7.95241 11.0072 7.74224 11.3404 7.59158 11.7237C7.44093 12.107 7.36467 12.518 7.36467 12.9587V17.8338C7.36467 18.032 7.33119 18.2153 7.26238 18.3838C7.19356 18.5522 7.09498 18.6985 6.96851 18.8244C6.84389 18.9503 6.6951 19.0466 6.52956 19.1151C6.36031 19.1855 6.1799 19.2188 5.99018 19.2188C5.80047 19.2188 5.61634 19.1855 5.44522 19.1151C5.27039 19.0466 5.11787 18.9485 4.9821 18.8244C4.85004 18.6985 4.74403 18.5522 4.66405 18.3838C4.58779 18.2171 4.54688 18.0338 4.54688 17.8338V13.0235V12.9717V12.9587C4.54688 12.1311 4.69567 11.3571 4.99326 10.6369C5.29271 9.91846 5.70561 9.28708 6.22825 8.74827C6.75089 8.20947 7.37211 7.78361 8.08633 7.4744C8.80054 7.16334 9.56869 7.00781 10.3908 7.00781C11.2222 7.00781 11.9922 7.16334 12.7045 7.4744C13.4132 7.78361 14.0269 8.20947 14.5496 8.74827C15.0685 9.28708 15.4777 9.9166 15.7753 10.6369C16.0747 11.3553 16.2254 12.1311 16.2254 12.9587V12.9717V13.0235V17.8338H16.2272Z" fill="black"/>
<path d="M102.195 3.35332C102.195 2.03317 103.248 1 104.595 1C105.941 1 106.999 2.02946 106.999 3.35332C106.999 4.66978 105.941 5.70295 104.595 5.70295C103.254 5.70295 102.195 4.66978 102.195 3.35332ZM106.406 3.35332C106.406 2.32942 105.618 1.54065 104.595 1.54065C103.581 1.54065 102.783 2.33127 102.783 3.35332C102.783 4.36798 103.581 5.166 104.595 5.166C105.618 5.16785 106.406 4.36798 106.406 3.35332ZM103.68 4.42167V2.20351H104.795C105.264 2.20351 105.593 2.4905 105.593 2.89044C105.593 3.23668 105.402 3.49034 105.089 3.54774L105.711 4.41982H105.074L104.556 3.61995H104.193V4.41982H103.68V4.42167ZM104.193 3.23668H104.688C104.913 3.23668 105.045 3.12003 105.045 2.92006C105.045 2.72565 104.922 2.62752 104.702 2.62752H104.193V3.23668Z" fill="black"/>
<path d="M49.1855 13.0334V3.8515C49.1855 3.64413 49.2227 3.45157 49.2971 3.27567C49.3715 3.09977 49.4683 2.94424 49.5966 2.81093C49.7212 2.67576 49.8719 2.57393 50.043 2.49987C50.2178 2.4258 50.4038 2.39062 50.601 2.39062C50.8093 2.39062 50.9971 2.4258 51.1682 2.49987C51.3375 2.57393 51.4826 2.67576 51.6109 2.81093C51.7355 2.94424 51.8341 3.09977 51.9029 3.27567C51.9717 3.45157 52.0052 3.64413 52.0052 3.8515V7.88604C52.4999 7.56757 53.03 7.31946 53.5992 7.14171C54.1664 6.96581 54.7616 6.87694 55.3847 6.87694C56.2421 6.87694 57.0438 7.03988 57.7933 7.36205C58.5429 7.68607 59.1957 8.12674 59.7537 8.6822C60.3154 9.23767 60.7543 9.89127 61.0798 10.6411C61.4053 11.391 61.5671 12.1928 61.5671 13.0463C61.5671 13.8906 61.4053 14.6886 61.0798 15.4385C60.7543 16.1903 60.3154 16.8439 59.7537 17.403C59.1957 17.964 58.541 18.4047 57.7933 18.7287C57.0438 19.0509 56.2421 19.2138 55.3847 19.2138C54.5347 19.2138 53.7331 19.0509 52.9817 18.7287C52.2265 18.4047 51.5681 17.964 51.0046 17.403C50.4429 16.8439 49.9983 16.1884 49.6728 15.4385C49.3492 14.6886 49.1855 13.8906 49.1855 13.0463V13.0334ZM52.0033 13.0463C52.0033 13.5037 52.0926 13.9369 52.2712 14.3461C52.4497 14.7553 52.6915 15.1127 52.9984 15.4182C53.3053 15.7255 53.6624 15.9662 54.0697 16.1421C54.477 16.318 54.9141 16.4069 55.3828 16.4069C55.8478 16.4069 56.2886 16.318 56.6922 16.1421C57.0996 15.9662 57.4567 15.7237 57.7636 15.4182C58.0723 15.1127 58.3122 14.7553 58.4852 14.3461C58.6563 13.9369 58.7437 13.5037 58.7437 13.0463C58.7437 12.5816 58.6563 12.1428 58.4852 11.7336C58.3104 11.3244 58.0723 10.9689 57.7636 10.6671C57.4567 10.3653 57.0996 10.1264 56.6922 9.94867C56.2868 9.77277 55.8478 9.68204 55.3828 9.68204C54.9141 9.68204 54.477 9.77092 54.0697 9.94867C53.6624 10.1246 53.3053 10.3653 52.9984 10.6671C52.6915 10.9689 52.4479 11.3244 52.2712 11.7336C52.0926 12.1428 52.0033 12.5816 52.0033 13.0463Z" fill="black"/>
<path d="M65.8622 18.2296C65.7878 18.3963 65.6929 18.5426 65.5702 18.6629C65.4493 18.7833 65.3061 18.8795 65.1405 18.9536C64.9768 19.0258 64.7983 19.0628 64.6086 19.0628C64.4077 19.0628 64.2199 19.0258 64.0413 18.9536C63.8646 18.8795 63.7102 18.7833 63.58 18.6629C63.4498 18.5426 63.3438 18.3963 63.2676 18.2296C63.1913 18.0612 63.1504 17.8779 63.1504 17.6797V13.5026C63.1504 12.6139 63.3196 11.7788 63.6637 10.9938C64.006 10.2106 64.4709 9.52364 65.0587 8.9367C65.6483 8.34976 66.3365 7.88687 67.1251 7.54618C67.9137 7.2055 68.7469 7.03516 69.6304 7.03516H69.6564C70.1251 7.03516 70.4841 7.16662 70.7408 7.42954C70.9956 7.69246 71.1239 8.02759 71.1239 8.43123C71.1239 8.62934 71.0849 8.81635 71.0067 8.98669C70.9268 9.15889 70.8207 9.30886 70.6868 9.43292C70.5511 9.55882 70.3985 9.65696 70.2218 9.73102C70.0414 9.80508 69.8536 9.84026 69.6546 9.84026H69.6285C69.1356 9.84026 68.6651 9.93469 68.2206 10.1254C67.7742 10.3143 67.3873 10.5753 67.0562 10.9012C66.7289 11.2289 66.4629 11.6122 66.2658 12.0529C66.0668 12.4935 65.9663 12.9638 65.9663 13.4619V17.6779C65.9719 17.8779 65.9347 18.0612 65.8622 18.2296Z" fill="black"/>
<path d="M71.0645 13.0483C71.0645 12.1947 71.2281 11.3948 71.5592 10.6487C71.8865 9.90249 72.3348 9.24889 72.8965 8.68973C73.46 8.1287 74.1166 7.68804 74.8662 7.36401C75.6157 7.04184 76.4136 6.87891 77.2636 6.87891C78.121 6.87891 78.9227 7.04184 79.6722 7.36401C80.4218 7.68804 81.0746 8.1287 81.6326 8.68973C82.1906 9.24889 82.6332 9.90249 82.9587 10.6487C83.2842 11.3948 83.446 12.1947 83.446 13.0483V17.6253C83.446 17.8234 83.4088 18.0104 83.3344 18.1808C83.2637 18.353 83.1596 18.5048 83.0294 18.6344C82.8992 18.764 82.7467 18.8677 82.5681 18.9455C82.3914 19.0232 82.2036 19.0621 82.0009 19.0621C81.6642 19.0621 81.3796 18.964 81.1434 18.764C80.9109 18.5659 80.7547 18.316 80.6784 18.0141C80.1837 18.3845 79.648 18.6789 79.0715 18.8936C78.4967 19.1103 77.8904 19.2177 77.2617 19.2177C76.4118 19.2177 75.6139 19.0547 74.8643 18.7326C74.1147 18.4085 73.4582 17.9679 72.8946 17.4068C72.3329 16.8477 71.8865 16.1922 71.5573 15.4423C71.2281 14.6906 71.0645 13.8926 71.0645 13.0483ZM73.8823 13.0483C73.8823 13.5056 73.9715 13.9389 74.1501 14.3481C74.3268 14.7573 74.5704 15.1146 74.8773 15.4201C75.1842 15.7275 75.5413 15.9682 75.9486 16.1441C76.356 16.32 76.793 16.4089 77.2617 16.4089C77.7267 16.4089 78.1675 16.32 78.5804 16.1441C78.9915 15.9682 79.3486 15.7256 79.6518 15.4201C79.9531 15.1146 80.1911 14.7573 80.366 14.3481C80.5371 13.9389 80.6245 13.5056 80.6245 13.0483C80.6245 12.5835 80.5371 12.1447 80.366 11.7355C80.1911 11.3263 79.9531 10.9708 79.6518 10.669C79.3467 10.3672 78.9896 10.1284 78.5804 9.95063C78.1675 9.77474 77.7286 9.68401 77.2617 9.68401C76.8005 9.68401 76.3671 9.77288 75.9542 9.95063C75.5432 10.1265 75.1842 10.3672 74.8773 10.669C74.5704 10.9708 74.3268 11.3263 74.1501 11.7355C73.9734 12.1447 73.8823 12.5835 73.8823 13.0483Z" fill="black"/>
<path d="M84.8848 4.1766C84.8848 3.96182 84.9238 3.75815 85.0057 3.56929C85.0875 3.38043 85.1991 3.21565 85.3367 3.07863C85.4762 2.93976 85.6418 2.83052 85.8315 2.74905C86.0212 2.66573 86.2202 2.625 86.4304 2.625C86.6368 2.625 86.8358 2.66573 87.0256 2.74905C87.2153 2.83052 87.3827 2.93976 87.5259 3.07863C87.6691 3.2175 87.7826 3.38043 87.8644 3.56929C87.9462 3.75815 87.989 3.96182 87.989 4.1766C87.989 4.38398 87.9462 4.58024 87.8644 4.7654C87.7826 4.95055 87.6691 5.11349 87.5259 5.2505C87.3827 5.38937 87.2171 5.49861 87.0256 5.58193C86.8358 5.6634 86.6368 5.70413 86.4304 5.70413C86.2221 5.70413 86.0231 5.6634 85.8315 5.58193C85.6418 5.49861 85.4762 5.38937 85.3367 5.2505C85.1991 5.11349 85.0875 4.95055 85.0057 4.7654C84.9257 4.58024 84.8848 4.38398 84.8848 4.1766ZM87.8458 17.667C87.8458 17.8651 87.8086 18.0484 87.7342 18.2169C87.6598 18.3854 87.5631 18.5317 87.4348 18.6576C87.3101 18.7835 87.1595 18.8816 86.9884 18.9557C86.8135 19.0279 86.6331 19.0649 86.4434 19.0649C86.2537 19.0649 86.0696 19.0279 85.8947 18.9557C85.7236 18.8816 85.5711 18.7835 85.4428 18.6576C85.3126 18.5317 85.2103 18.3854 85.1359 18.2169C85.0615 18.0484 85.028 17.8651 85.028 17.667V8.43147C85.028 8.24262 85.0652 8.06301 85.1452 7.89452C85.2214 7.72603 85.3256 7.57791 85.4576 7.4483C85.5878 7.31869 85.7385 7.21685 85.9096 7.14464C86.0844 7.07243 86.2704 7.0354 86.4676 7.0354C86.6573 7.0354 86.8377 7.07243 87.007 7.14464C87.1762 7.21871 87.325 7.32054 87.4496 7.4483C87.5742 7.57606 87.6728 7.72603 87.7416 7.89452C87.8123 8.06116 87.8477 8.24076 87.8477 8.43147V17.667H87.8458Z" fill="black"/>
<path d="M101.114 17.701C101.114 17.8992 101.077 18.0825 101.002 18.2509C100.928 18.4194 100.831 18.5657 100.71 18.6916C100.589 18.8175 100.443 18.9138 100.273 18.9823C100.104 19.0527 99.9236 19.086 99.7357 19.086C99.5349 19.086 99.3489 19.0527 99.174 18.9823C99.0029 18.9138 98.8504 18.8157 98.7221 18.6916C98.5919 18.5657 98.4859 18.4194 98.4096 18.2509C98.3296 18.0843 98.2924 17.901 98.2924 17.701V12.8907C98.2924 12.8222 98.2943 12.7703 98.3054 12.7352C98.2868 12.313 98.1976 11.9168 98.0376 11.5465C97.8758 11.1762 97.6638 10.8521 97.3997 10.5763C97.1374 10.3004 96.8231 10.0819 96.4604 9.92266C96.0959 9.76342 95.7016 9.68381 95.2775 9.68381C94.8348 9.68381 94.4275 9.76342 94.0555 9.92266C93.6854 10.0819 93.3655 10.3041 93.1032 10.5892C92.8391 10.8744 92.6289 11.2076 92.4783 11.5909C92.3276 11.9742 92.2514 12.3852 92.2514 12.8259V17.701C92.2514 17.8992 92.2179 18.0825 92.1491 18.2509C92.0803 18.4194 91.9817 18.5657 91.8552 18.6916C91.7306 18.8175 91.5818 18.9138 91.4163 18.9823C91.247 19.0527 91.0666 19.086 90.8769 19.086C90.6872 19.086 90.503 19.0527 90.3319 18.9823C90.1571 18.9138 90.0046 18.8157 89.8688 18.6916C89.7368 18.5657 89.6307 18.4194 89.5508 18.2509C89.4745 18.0843 89.4336 17.901 89.4336 17.701V12.8907V12.8389V12.8259C89.4336 11.9983 89.5824 11.2243 89.88 10.504C90.1776 9.78379 90.5923 9.15426 91.115 8.61546C91.6376 8.07666 92.2588 7.6508 92.973 7.34159C93.6872 7.03053 94.4554 6.875 95.2775 6.875C96.1089 6.875 96.8789 7.03053 97.5912 7.34159C98.2999 7.6508 98.9136 8.07666 99.4363 8.61546C99.9552 9.15426 100.364 9.78379 100.662 10.504C100.961 11.2224 101.112 11.9983 101.112 12.8259V12.8389V12.8907V17.701H101.114Z" fill="black"/>
</svg>
