<svg width="24" height="24" viewBox="0 0 24 24" fill="none" xmlns="http://www.w3.org/2000/svg">
<path d="M7.04912 13.406L10.5831 16.942L9.17012 18.356L10.5851 19.771L9.17112 21.185L6.69612 18.71L3.86712 21.539L2.45312 20.125L5.28212 17.295L2.80713 14.821L4.22112 13.407L5.63512 14.82L7.04812 13.406H7.04912ZM2.99912 3L6.54512 3.003L18.3621 14.821L19.7771 13.407L21.1911 14.821L18.7171 17.296L21.5451 20.125L20.1311 21.539L17.3021 18.71L14.8271 21.185L13.4131 19.771L14.8271 18.356L3.00212 6.531L2.99912 3ZM17.4561 3L20.9991 3.003L21.0011 6.526L16.9481 10.578L13.4121 7.043L17.4561 3Z" fill="#B1B1B1"/>
</svg>
